<?xml version="1.0" encoding="utf-8"?>
<!-- Generator: Adobe Illustrator 20.0.0, SVG Export Plug-In . SVG Version: 6.00 Build 0)  -->
<svg version="1.1" id="Layer_1" xmlns="http://www.w3.org/2000/svg" xmlns:xlink="http://www.w3.org/1999/xlink" x="0px" y="0px"
	 viewBox="0 0 93.5 82.2" style="enable-background:new 0 0 93.5 82.2;" xml:space="preserve">
<style type="text/css">
	.st0{fill:#4A4A49;}
	.st1{fill:#FFFFFF;}
	.st2{fill:#3FA535;}
</style>
<g>
	<path class="st0" d="M13.6,0C13.6,0,0,0,0,13.6v55c0,0,0,13.6,13.6,13.6h66.3c0,0,13.6,0,13.6-13.6v-55c0,0,0-13.6-13.6-13.6H13.6"
		/>
	<path class="st1" d="M86,69.8L86,69.8l0-4.7c0,0,0-14.6-12.9-18.1c-3.6,4-8.9,6.6-14.7,6.6c-5.8,0-10.9-2.5-14.5-6.4
		c-5.5,1.6-13.1,6-13.1,17.9v4.7l0,0c0,0,0,0,0,0c0,2.2,1.8,4,4,4c0,0,0,0,0,0l0,0H82h0C84.2,73.8,86,72,86,69.8
		C86,69.8,86,69.8,86,69.8"/>
	<path class="st1" d="M58.4,49.1c8.4,0,15.3-6.8,15.3-15.3s-6.8-15.3-15.3-15.3s-15.3,6.8-15.3,15.3S49.9,49.1,58.4,49.1"/>
	<path class="st1" d="M15.5,14.9H8.7c-1.2,0-2.2,1-2.2,2.2s1,2.2,2.2,2.2h6.7c1.2,0,2.2-1,2.2-2.2S16.7,14.9,15.5,14.9"/>
	<path class="st1" d="M15.5,32.6H8.7c-1.2,0-2.2,1-2.2,2.2s1,2.2,2.2,2.2h6.7c1.2,0,2.2-1,2.2-2.2S16.7,32.6,15.5,32.6"/>
	<path class="st2" d="M35.2,6.9l-6.8,10.2l-2.3-2.3c-0.8-0.8-2.1-0.8-2.9,0c-0.8,0.8-0.8,2.1,0,2.9l4.1,4.1c0.4,0.4,0.9,0.6,1.5,0.6
		c0.1,0,0.1,0,0.2,0c0.6-0.1,1.2-0.4,1.5-0.9l8.2-12.3C39.3,8.2,39,7,38.1,6.3C37.1,5.7,35.9,6,35.2,6.9"/>
	<path class="st2" d="M35.2,23.1l-6.8,10.2L26.1,31c-0.8-0.8-2.1-0.8-2.9,0c-0.8,0.8-0.8,2.1,0,2.9l4.1,4.1c0.4,0.4,0.9,0.6,1.5,0.6
		c0.1,0,0.1,0,0.2,0c0.6-0.1,1.2-0.4,1.5-0.9l8.2-12.3c0.6-0.9,0.4-2.2-0.6-2.9C37.1,21.9,35.9,22.2,35.2,23.1"/>
</g>
</svg>
