<?xml version="1.0" encoding="utf-8"?>
<!-- Generator: Adobe Illustrator 20.0.0, SVG Export Plug-In . SVG Version: 6.00 Build 0)  -->
<svg version="1.1" id="Layer_1" xmlns="http://www.w3.org/2000/svg" xmlns:xlink="http://www.w3.org/1999/xlink" x="0px" y="0px"
	 viewBox="0 0 93.5 82.2" style="enable-background:new 0 0 93.5 82.2;" xml:space="preserve">
<style type="text/css">
	.st0{fill:#4A4A49;}
	.st1{fill:#FFFFFF;}
	.st2{fill:#FCC04C;}
</style>
<g>
	<path class="st0" d="M13.6,0C13.6,0,0,0,0,13.6v55c0,0,0,13.6,13.6,13.6h66.3c0,0,13.6,0,13.6-13.6v-55c0,0,0-13.6-13.6-13.6H13.6"
		/>
	<path class="st1" d="M21.9,15.9c0,0-3.7,0-3.7,3.7v4.6c0,0,0,3.7,3.7,3.7h49.6c0,0,3.7,0,3.7-3.7v-4.6c0,0,0-3.7-3.7-3.7H21.9"/>
	<path class="st1" d="M23.5,30.9c0,0-5.2,0-5.2,5.2v30.7c0,0,0,5.2,5.2,5.2H70c0,0,5.2,0,5.2-5.2V36c0,0,0-5.2-5.2-5.2H23.5"/>
	<path class="st0" d="M27.6,4.4c0,0-2.9,0-2.9,2.9v14c0,0,0,2.9,2.9,2.9h2.3c0,0,2.9,0,2.9-2.9v-14c0,0,0-2.9-2.9-2.9H27.6z"/>
	<path class="st0" d="M45.6,4.4c0,0-2.9,0-2.9,2.9v14c0,0,0,2.9,2.9,2.9h2.3c0,0,2.9,0,2.9-2.9v-14c0,0,0-2.9-2.9-2.9H45.6z"/>
	<path class="st2" d="M27.6,7.8c0,0-0.8,0-0.8,0.8v12.4c0,0,0,0.8,0.8,0.8h2.3c0,0,0.8,0,0.8-0.8V8.5c0,0,0-0.8-0.8-0.8H27.6"/>
	<path class="st2" d="M45.6,7.8c0,0-0.8,0-0.8,0.8v12.4c0,0,0,0.8,0.8,0.8h2.3c0,0,0.8,0,0.8-0.8V8.5c0,0,0-0.8-0.8-0.8H45.6"/>
	<path d="M64.2,7.8c0,0-0.8,0-0.8,0.8v12.4c0,0,0,0.8,0.8,0.8h2.3c0,0,0.8,0,0.8-0.8V8.5c0,0,0-0.8-0.8-0.8H64.2"/>
	<path d="M63.6,7.8c0,0-0.8,0-0.8,0.8v12.4c0,0,0,0.8,0.8,0.8H66c0,0,0.8,0,0.8-0.8V8.5c0,0,0-0.8-0.8-0.8H63.6"/>
	<path class="st0" d="M63.6,4.4c0,0-2.9,0-2.9,2.9v14c0,0,0,2.9,2.9,2.9H66c0,0,2.9,0,2.9-2.9v-14c0,0,0-2.9-2.9-2.9H63.6z"/>
	<path class="st2" d="M52.2,53.5L59,44v9.5H52.2z M64.7,60.8v-3.5h2.7v-3.7h-2.7V36.9h-5.4L47.5,53.7c0.5,0.9,1,2.1,1.5,3.5H59v3.5
		h-3v4h11v-4H64.7z M39.8,56.8v3.6h-8c0.1-0.8,0.5-1.8,1.2-2.9c0.7-1.1,2.3-2.6,4.9-4.5c1.7-1.2,3-2.2,3.6-2.9
		c0.7-0.7,1.3-1.5,1.7-2.5c0.5-1,0.7-2,0.7-3.2c0-2.2-0.7-3.9-2.2-5.4c-1.5-1.4-3.5-2.2-6.1-2.2c-1.6,0-3.1,0.3-4.4,0.9
		c-1.4,0.6-2.4,1.6-3.2,2.9c-0.8,1.3-1.2,3.3-1.2,6l5,0.2c0.1-2,0.4-3.5,0.9-4.4c0.5-0.9,1.3-1.3,2.4-1.3c0.7,0,1.4,0.3,1.9,0.8
		c0.5,0.5,0.7,1.2,0.7,2.1c0,1.1-0.3,2.1-1,3c-0.7,0.9-2,2.3-4.1,4.2c-1.6,1.5-2.8,2.8-3.7,4.1c-0.9,1.2-1.5,2.5-1.9,3.8
		c-0.4,1.3-0.6,3.2-0.6,5.5h17.5l0.2-7.9H39.8z"/>
	<path class="st2" d="M63.6,7.8c0,0-0.8,0-0.8,0.8v12.4c0,0,0,0.8,0.8,0.8H66c0,0,0.8,0,0.8-0.8V8.5c0,0,0-0.8-0.8-0.8H63.6"/>
</g>
</svg>
