<?xml version="1.0" encoding="utf-8"?>
<!-- Generator: Adobe Illustrator 20.0.0, SVG Export Plug-In . SVG Version: 6.00 Build 0)  -->
<svg version="1.1" id="Layer_1" xmlns="http://www.w3.org/2000/svg" xmlns:xlink="http://www.w3.org/1999/xlink" x="0px" y="0px"
	 viewBox="0 0 93.5 82.2" style="enable-background:new 0 0 93.5 82.2;" xml:space="preserve">
<style type="text/css">
	.st0{fill:#4A4A49;}
	.st1{fill:#FFFFFF;}
	.st2{fill:#3FA535;}
</style>
<g>
	<path class="st0" d="M13.6,0C13.6,0,0,0,0,13.6v55c0,0,0,13.6,13.6,13.6h66.3c0,0,13.6,0,13.6-13.6v-55c0,0,0-13.6-13.6-13.6H13.6"
		/>
	<path class="st1" d="M78.6,7.8c0,0,3.7,0,3.7,3.7V48c0,0,0,3.7-3.7,3.7H53.8c0,0-3.7,0-3.7-3.7V15.5l7.7-7.7H78.6"/>
	<path class="st1" d="M51.9,16.7c0,0-0.6,0-0.6,0.6v0.5c0,0,0,0.6,0.6,0.6h24.7c0,0,0.6,0,0.6-0.6v-0.5c0,0,0-0.6-0.6-0.6H51.9"/>
	<path class="st1" d="M51.9,21.3c0,0-0.6,0-0.6,0.6v0.5c0,0,0,0.6,0.6,0.6h24.7c0,0,0.6,0,0.6-0.6v-0.5c0,0,0-0.6-0.6-0.6H51.9"/>
	<path class="st2" d="M62.5,44.2l4.7,4.7c0.7,0.7,1.7,0.7,2.4,0c0.7-0.6,0.7-1.7,0-2.4l-1.8-1.8h9.8c0.9,0,1.7-0.7,1.7-1.7
		c0-0.9-0.7-1.7-1.7-1.7h-9.8l1.8-1.8c0.7-0.7,0.7-1.7,0-2.4c-0.3-0.3-0.8-0.5-1.2-0.5c-0.4,0-0.9,0.2-1.2,0.5l-4.7,4.7
		C62.2,42.1,62,42.5,62,43C62,43.4,62.2,43.8,62.5,44.2"/>
	<path class="st1" d="M15.2,30.9c0,0-3.7,0-3.7,3.7V71c0,0,0,3.7,3.7,3.7H40c0,0,3.7,0,3.7-3.7V38.5L36,30.9H15.2"/>
	<path class="st0" d="M15.2,39.6c0,0-0.6,0-0.6,0.7v0.6c0,0,0,0.7,0.6,0.7h24.7c0,0,0.6,0,0.6-0.7v-0.6c0,0,0-0.7-0.6-0.7H15.2"/>
	<path class="st0" d="M53.9,16.5c0,0-0.6,0-0.6,0.7v0.6c0,0,0,0.7,0.6,0.7h24.7c0,0,0.6,0,0.6-0.7v-0.6c0,0,0-0.7-0.6-0.7H53.9"/>
	<path class="st0" d="M15.2,44.7c0,0-0.6,0-0.6,0.7V46c0,0,0,0.7,0.6,0.7h24.7c0,0,0.6,0,0.6-0.7v-0.6c0,0,0-0.7-0.6-0.7H15.2"/>
	<path class="st0" d="M53.9,21.6c0,0-0.6,0-0.6,0.7v0.6c0,0,0,0.7,0.6,0.7h24.7c0,0,0.6,0,0.6-0.7v-0.6c0,0,0-0.7-0.6-0.7H53.9"/>
	<path class="st0" d="M15.2,49.8c0,0-0.6,0-0.6,0.7v0.6c0,0,0,0.7,0.6,0.7h24.7c0,0,0.6,0,0.6-0.7v-0.6c0,0,0-0.7-0.6-0.7H15.2"/>
	<path class="st0" d="M53.9,26.7c0,0-0.6,0-0.6,0.7v0.6c0,0,0,0.7,0.6,0.7h24.7c0,0,0.6,0,0.6-0.7v-0.6c0,0,0-0.7-0.6-0.7H53.9"/>
	<path class="st2" d="M31.3,64.9l-4.7-4.7c-0.6-0.7-1.7-0.7-2.4,0c-0.6,0.6-0.6,1.7,0,2.4l1.8,1.8h-9.8c-0.9,0-1.7,0.7-1.7,1.7
		s0.7,1.7,1.7,1.7h9.8l-1.8,1.8c-0.6,0.7-0.7,1.7,0,2.4c0.3,0.3,0.8,0.5,1.2,0.5c0.4,0,0.9-0.2,1.2-0.5l4.7-4.7
		c0.3-0.3,0.5-0.7,0.5-1.2C31.8,65.6,31.6,65.2,31.3,64.9"/>
	<path class="st1" d="M28.3,28.6c1.3,0,2.3-1,2.3-2.3c0-1.3-1-2.3-2.3-2.3c-1.3,0-2.3,1-2.3,2.3C26,27.6,27.1,28.6,28.3,28.6"/>
	<path class="st1" d="M66.6,53.7c-1.3,0-2.3,1-2.3,2.3s1,2.3,2.3,2.3c1.3,0,2.3-1,2.3-2.3S67.9,53.7,66.6,53.7"/>
	<path class="st1" d="M44.5,12.3c1.3,0,2.3-1,2.3-2.3c0-1.3-1-2.3-2.3-2.3c-1.3,0-2.3,1-2.3,2.3C42.3,11.3,43.3,12.3,44.5,12.3"/>
	<path class="st1" d="M50.4,70c-1.3,0-2.3,1-2.3,2.3s1,2.3,2.3,2.3c1.3,0,2.3-1,2.3-2.3S51.6,70,50.4,70"/>
	<path class="st1" d="M36.5,14.6c1.3,0,2.3-1,2.3-2.3c0-1.3-1-2.3-2.3-2.3c-1.3,0-2.3,1-2.3,2.3C34.2,13.6,35.2,14.6,36.5,14.6"/>
	<path class="st1" d="M58.5,67.7c-1.3,0-2.3,1-2.3,2.3s1,2.3,2.3,2.3c1.3,0,2.3-1,2.3-2.3S59.7,67.7,58.5,67.7"/>
	<path class="st1" d="M30.6,20.5c1.3,0,2.3-1,2.3-2.3c0-1.3-1-2.3-2.3-2.3c-1.3,0-2.3,1-2.3,2.3C28.3,19.4,29.3,20.5,30.6,20.5"/>
	<path class="st1" d="M64.3,61.9c-1.3,0-2.3,1-2.3,2.3c0,1.3,1,2.3,2.3,2.3c1.3,0,2.3-1,2.3-2.3C66.6,62.9,65.6,61.9,64.3,61.9"/>
</g>
</svg>
