<?xml version="1.0" encoding="utf-8"?>
<!-- Generator: Adobe Illustrator 20.0.0, SVG Export Plug-In . SVG Version: 6.00 Build 0)  -->
<svg version="1.1" id="Layer_1" xmlns="http://www.w3.org/2000/svg" xmlns:xlink="http://www.w3.org/1999/xlink" x="0px" y="0px"
	 viewBox="0 0 93.5 82.2" style="enable-background:new 0 0 93.5 82.2;" xml:space="preserve">
<style type="text/css">
	.st0{fill:#4A4A49;}
	.st1{fill:#FFFFFF;}
	.st2{fill:#3FA535;}
</style>
<g>
	<path class="st0" d="M13.6,0C13.6,0,0,0,0,13.6v55c0,0,0,13.6,13.6,13.6h66.3c0,0,13.6,0,13.6-13.6v-55c0,0,0-13.6-13.6-13.6H13.6"
		/>
	<path class="st1" d="M69.3,13.5c-1.6,0-2.8,1.3-2.8,2.8c0,1.6,1.3,2.8,2.8,2.8c1.6,0,2.8-1.3,2.8-2.8
		C72.1,14.8,70.8,13.5,69.3,13.5 M60.8,13.5c-1.6,0-2.8,1.3-2.8,2.8c0,1.6,1.3,2.8,2.8,2.8c1.6,0,2.8-1.3,2.8-2.8
		C63.6,14.8,62.3,13.5,60.8,13.5 M74.9,24.8H49.5v3.7h2.8c1.6,0,2.8,1.3,2.8,2.8h19.8c1.6,0,2.8,1.3,2.8,2.8c0,1.6-1.3,2.8-2.8,2.8
		H55.1c0,1.6-1.3,2.8-2.8,2.8H41c-1.6,0-2.8-1.3-2.8-2.8H18.3c-1.6,0-2.8-1.3-2.8-2.8c0-1.6,1.3-2.8,2.8-2.8h19.8
		c0-1.6,1.3-2.8,2.8-2.8h2.8v-3.7H18.3c-1.6,0-2.8-1.3-2.8-2.8V10.7c0-1.6,1.3-2.8,2.8-2.8h56.6c1.6,0,2.8,1.3,2.8,2.8V22
		C77.8,23.6,76.5,24.8,74.9,24.8"/>
	<path class="st2" d="M61.5,61.1c0-8.2-6.7-14.9-14.9-14.9s-14.9,6.7-14.9,14.9S38.4,76,46.6,76S61.5,69.3,61.5,61.1"/>
</g>
<polygon class="st1" points="54.8,52.9 54.8,52.9 54.8,52.9 54.8,53 37.1,59.3 43.6,64.1 48.4,70.7 54.8,53 "/>
<rect x="37.4" y="63.2" transform="matrix(0.7071 -0.7071 0.7071 0.7071 -33.7819 49.1093)" class="st1" width="10" height="4.3"/>
</svg>
