<?xml version="1.0" encoding="utf-8"?>
<!-- Generator: Adobe Illustrator 20.0.0, SVG Export Plug-In . SVG Version: 6.00 Build 0)  -->
<svg version="1.1" id="Layer_1" xmlns="http://www.w3.org/2000/svg" xmlns:xlink="http://www.w3.org/1999/xlink" x="0px" y="0px"
	 viewBox="0 0 93.5 82.2" style="enable-background:new 0 0 93.5 82.2;" xml:space="preserve">
<style type="text/css">
	.st0{fill:#4A4A49;}
	.st1{fill:#FFFFFF;}
	.st2{fill:#3FA535;}
</style>
<g>
	<g>
		<path class="st0" d="M13.6,0C13.6,0,0,0,0,13.6v55c0,0,0,13.6,13.6,13.6h66.3c0,0,13.6,0,13.6-13.6v-55c0,0,0-13.6-13.6-13.6H13.6
			"/>
	</g>
	<g>
		<path class="st1" d="M46.7,72.3c-17.2,0-31.1-14-31.1-31.1s14-31.1,31.1-31.1c17.2,0,31.1,14,31.1,31.1S63.9,72.3,46.7,72.3z
			 M46.7,15.1c-14.4,0-26.1,11.7-26.1,26.1s11.7,26.1,26.1,26.1c14.4,0,26.1-11.7,26.1-26.1S61.2,15.1,46.7,15.1z"/>
	</g>
	<g>
		<path class="st1" d="M42.1,71.1l-0.9-3.9c12.2-2.8,20.6-13.5,20.6-26c0-12.5-8.5-23.2-20.6-26l0.9-3.9c14,3.2,23.8,15.5,23.8,29.9
			C65.8,55.6,56,67.8,42.1,71.1z"/>
	</g>
	<g>
		<path class="st1" d="M51.4,71.1c-14-3.2-23.8-15.5-23.8-29.9c0-14.4,9.8-26.6,23.7-29.9l0.9,3.9c-12.2,2.8-20.6,13.5-20.6,26
			c0,12.5,8.5,23.2,20.6,26L51.4,71.1z"/>
	</g>
	<g>
		<path class="st1" d="M46.7,31c-7.9,0-15.4-3-21.1-8.4l2.8-2.9c5,4.7,11.5,7.3,18.3,7.3c7.1,0,13.8-2.8,18.8-7.8l2.8,2.8
			C62.6,27.8,54.9,31,46.7,31z"/>
	</g>
	<g>
		<path class="st1" d="M28.5,63.2l-2.8-2.8c5.8-5.8,13.5-8.9,21.6-8.9c7.9,0,15.4,3,21.1,8.4l-2.8,2.9c-5-4.7-11.5-7.3-18.3-7.3
			C40.2,55.4,33.5,58.2,28.5,63.2z"/>
	</g>
</g>
<g>
	<rect x="18.2" y="38.9" class="st1" width="55.3" height="4.5"/>
</g>
<g>
	<g>
		<path class="st2" d="M35.2,61.1c0-7.6-6.2-13.8-13.8-13.8c-7.6,0-13.8,6.2-13.8,13.8s6.2,13.8,13.8,13.8
			C29,74.9,35.2,68.7,35.2,61.1"/>
	</g>
</g>
<g>
	<polygon class="st1" points="28.9,53.7 28.9,53.7 28.9,53.6 28.9,53.7 12.5,59.5 18.6,64 23,70 28.9,53.7 	"/>
</g>
<g>
	
		<rect x="12.8" y="63.1" transform="matrix(0.7071 -0.7071 0.7071 0.7071 -40.9393 31.3893)" class="st1" width="9.2" height="3.9"/>
</g>
</svg>
