<?xml version="1.0" encoding="utf-8"?>
<!-- Generator: Adobe Illustrator 20.0.0, SVG Export Plug-In . SVG Version: 6.00 Build 0)  -->
<svg version="1.1" id="Layer_1" xmlns="http://www.w3.org/2000/svg" xmlns:xlink="http://www.w3.org/1999/xlink" x="0px" y="0px"
	 viewBox="0 0 93.5 82.2" style="enable-background:new 0 0 93.5 82.2;" xml:space="preserve">
<style type="text/css">
	.st0{fill:#4A4A49;}
	.st1{fill:#FFFFFF;}
	.st2{fill:#3FA535;}
</style>
<g>
	<path class="st0" d="M13.6,0C13.6,0,0,0,0,13.6v55c0,0,0,13.6,13.6,13.6h66.3c0,0,13.6,0,13.6-13.6v-55c0,0,0-13.6-13.6-13.6H13.6"
		/>
	<path class="st1" d="M69.3,13.5c-1.6,0-2.8,1.3-2.8,2.8c0,1.6,1.3,2.8,2.8,2.8c1.6,0,2.8-1.3,2.8-2.8
		C72.1,14.8,70.8,13.5,69.3,13.5 M60.8,13.5c-1.6,0-2.8,1.3-2.8,2.8c0,1.6,1.3,2.8,2.8,2.8c1.6,0,2.8-1.3,2.8-2.8
		C63.6,14.8,62.3,13.5,60.8,13.5 M74.9,24.8H49.5v3.7h2.8c1.6,0,2.8,1.3,2.8,2.8h19.8c1.6,0,2.8,1.3,2.8,2.8c0,1.6-1.3,2.8-2.8,2.8
		H55.1c0,1.6-1.3,2.8-2.8,2.8H41c-1.6,0-2.8-1.3-2.8-2.8H18.3c-1.6,0-2.8-1.3-2.8-2.8c0-1.6,1.3-2.8,2.8-2.8h19.8
		c0-1.6,1.3-2.8,2.8-2.8h2.8v-3.7H18.3c-1.6,0-2.8-1.3-2.8-2.8V10.7c0-1.6,1.3-2.8,2.8-2.8h56.6c1.6,0,2.8,1.3,2.8,2.8V22
		C77.8,23.6,76.5,24.8,74.9,24.8"/>
	<path class="st1" d="M18.2,42.5c0,0-2.7,0-2.7,2.7v26.3c0,0,0,2.7,2.7,2.7H36c0,0,2.7,0,2.7-2.7V48l-5.5-5.5H18.2"/>
	<path class="st0" d="M18.2,48.7c0,0-0.4,0-0.4,0.5v0.4c0,0,0,0.5,0.4,0.5H36c0,0,0.4,0,0.4-0.5v-0.4c0,0,0-0.5-0.4-0.5H18.2"/>
	<path class="st0" d="M18.2,52.4c0,0-0.4,0-0.4,0.5v0.4c0,0,0,0.5,0.4,0.5H36c0,0,0.4,0,0.4-0.5V53c0,0,0-0.5-0.4-0.5H18.2"/>
	<path class="st0" d="M18.2,56.1c0,0-0.4,0-0.4,0.5v0.4c0,0,0,0.5,0.4,0.5H36c0,0,0.4,0,0.4-0.5v-0.4c0,0,0-0.5-0.4-0.5H18.2"/>
	<path class="st2" d="M29.8,67l-3.4-3.4c-0.5-0.5-1.2-0.5-1.7,0c-0.5,0.5-0.5,1.2,0,1.7l1.3,1.3H19c-0.7,0-1.2,0.5-1.2,1.2
		S18.3,69,19,69h7.1l-1.3,1.3c-0.5,0.5-0.5,1.2,0,1.7c0.2,0.2,0.5,0.4,0.8,0.4c0.3,0,0.6-0.1,0.8-0.4l3.4-3.4
		c0.2-0.2,0.4-0.5,0.4-0.8C30.2,67.5,30,67.2,29.8,67"/>
	<path class="st1" d="M57.2,42.5c0,0-2.7,0-2.7,2.7v26.3c0,0,0,2.7,2.7,2.7h17.9c0,0,2.7,0,2.7-2.7V48l-5.5-5.5H57.2"/>
	<path class="st0" d="M57.2,48.7c0,0-0.4,0-0.4,0.5v0.4c0,0,0,0.5,0.4,0.5H75c0,0,0.4,0,0.4-0.5v-0.4c0,0,0-0.5-0.4-0.5H57.2"/>
	<path class="st0" d="M57.2,52.4c0,0-0.4,0-0.4,0.5v0.4c0,0,0,0.5,0.4,0.5H75c0,0,0.4,0,0.4-0.5V53c0,0,0-0.5-0.4-0.5H57.2"/>
	<path class="st0" d="M57.2,56.1c0,0-0.4,0-0.4,0.5v0.4c0,0,0,0.5,0.4,0.5H75c0,0,0.4,0,0.4-0.5v-0.4c0,0,0-0.5-0.4-0.5H57.2"/>
</g>
</svg>
