<?xml version="1.0" encoding="utf-8"?>
<!-- Generator: Adobe Illustrator 20.0.0, SVG Export Plug-In . SVG Version: 6.00 Build 0)  -->
<svg version="1.1" id="Layer_1" xmlns="http://www.w3.org/2000/svg" xmlns:xlink="http://www.w3.org/1999/xlink" x="0px" y="0px"
	 viewBox="0 0 93.5 82.2" style="enable-background:new 0 0 93.5 82.2;" xml:space="preserve">
<style type="text/css">
	.st0{fill:#4A4A49;}
	.st1{fill:#3FA535;}
	.st2{fill:#FFFFFF;}
</style>
<g>
	<path class="st0" d="M13.6,0C13.6,0,0,0,0,13.6v55c0,0,0,13.6,13.6,13.6h66.3c0,0,13.6,0,13.6-13.6v-55c0,0,0-13.6-13.6-13.6H13.6"
		/>
	<path class="st1" d="M61.6,60.1c0-8.2-6.7-14.9-14.9-14.9s-14.9,6.7-14.9,14.9S38.5,75,46.7,75S61.6,68.3,61.6,60.1"/>
	<path class="st2" d="M69.4,13.5c-1.6,0-2.8,1.3-2.8,2.8c0,1.6,1.3,2.8,2.8,2.8c1.6,0,2.8-1.3,2.8-2.8C72.2,14.8,71,13.5,69.4,13.5
		 M60.9,13.5c-1.6,0-2.8,1.3-2.8,2.8c0,1.6,1.3,2.8,2.8,2.8c1.6,0,2.8-1.3,2.8-2.8C63.7,14.8,62.5,13.5,60.9,13.5 M75.1,24.8H49.6
		v3.7h2.8c1.6,0,2.8,1.3,2.8,2.8h19.8c1.6,0,2.8,1.3,2.8,2.8c0,1.6-1.3,2.8-2.8,2.8H55.2c0,1.6-1.3,2.8-2.8,2.8H41.1
		c-1.6,0-2.8-1.3-2.8-2.8H18.4c-1.6,0-2.8-1.3-2.8-2.8c0-1.6,1.3-2.8,2.8-2.8h19.8c0-1.6,1.3-2.8,2.8-2.8h2.8v-3.7H18.4
		c-1.6,0-2.8-1.3-2.8-2.8V10.7c0-1.6,1.3-2.8,2.8-2.8h56.6c1.6,0,2.8,1.3,2.8,2.8V22C77.9,23.6,76.6,24.8,75.1,24.8"/>
	<path class="st2" d="M46.3,70.3c1.2,0,2.2-1,2.2-2.2c0-1.2-1-2.2-2.2-2.2c-1.2,0-2.2,1-2.2,2.2C44.2,69.3,45.1,70.3,46.3,70.3
		 M44.3,62.4c0,1.1,0.8,1.9,2,1.9c1.2,0,2-0.8,2-1.9v-1c2.9-0.7,4.8-2.5,4.8-5.6c0-3.7-3.1-6-6.7-6c-2.5,0-6.2,1.7-6.2,4.6
		c0,1.2,0.7,2,1.7,2c1.8,0,2.1-2.8,4.5-2.8c1.2,0,2.3,0.9,2.3,2.1c0,1.6-1.1,2.1-2.2,2.4c-1.1,0.3-2.3,0.5-2.3,1.5V62.4z"/>
</g>
</svg>
