<?xml version="1.0" encoding="utf-8"?>
<!-- Generator: Adobe Illustrator 20.0.0, SVG Export Plug-In . SVG Version: 6.00 Build 0)  -->
<svg version="1.1" id="Layer_1" xmlns="http://www.w3.org/2000/svg" xmlns:xlink="http://www.w3.org/1999/xlink" x="0px" y="0px"
	 viewBox="0 0 93.5 82.2" style="enable-background:new 0 0 93.5 82.2;" xml:space="preserve">
<style type="text/css">
	.st0{clip-path:url(#SVGID_2_);}
	.st1{fill:#4A4A49;}
	.st2{fill:#FFFFFF;}
	.st3{clip-path:url(#SVGID_4_);}
	.st4{fill:#E6007E;}
</style>
<g>
	<defs>
		<rect id="SVGID_1_" width="93.5" height="82.2"/>
	</defs>
	<clipPath id="SVGID_2_">
		<use xlink:href="#SVGID_1_"  style="overflow:visible;"/>
	</clipPath>
	<g class="st0">
		<path class="st1" d="M13.6,0C13.6,0,0,0,0,13.6v55c0,0,0,13.6,13.6,13.6h66.3c0,0,13.6,0,13.6-13.6v-55c0,0,0-13.6-13.6-13.6H13.6
			"/>
	</g>
	<g class="st0">
		<path class="st2" d="M27.9,7.7c0,0-5.7,0-5.7,5.7v55.5c0,0,0,5.7,5.7,5.7h37.7c0,0,5.7,0,5.7-5.7V19.4L59.6,7.7H27.9"/>
	</g>
</g>
<g>
	<polygon class="st1" points="65.2,69.8 28.3,69.8 28.3,66.7 62.2,66.7 62.2,62.8 28.1,62.8 28.1,52.9 62.2,52.9 62.2,47.9 
		65.2,47.9 65.2,55.9 31.1,55.9 31.1,59.8 65.2,59.8 	"/>
</g>
<g>
	<defs>
		<rect id="SVGID_3_" width="93.5" height="82.2"/>
	</defs>
	<clipPath id="SVGID_4_">
		<use xlink:href="#SVGID_3_"  style="overflow:visible;"/>
	</clipPath>
	<g class="st3">
		<path class="st4" d="M46.8,45c-6.4,0-11.6-6.3-11.6-14.1c0-7.8,5.2-14.1,11.6-14.1s11.6,6.3,11.6,14.1C58.4,38.7,53.2,45,46.8,45"
			/>
	</g>
	<g class="st3">
		<path class="st4" d="M50.6,21.9c-2.7,0-4.9-2.3-4.9-5.2c0-2.8,2.2-5.2,4.9-5.2c2.7,0,4.9,2.3,4.9,5.2
			C55.4,19.6,53.3,21.9,50.6,21.9"/>
	</g>
	<g class="st3">
		<path class="st4" d="M43.4,21.9c-2.7,0-4.9-2.3-4.9-5.2c0-2.8,2.2-5.2,4.9-5.2c2.7,0,4.9,2.3,4.9,5.2C48.2,19.6,46,21.9,43.4,21.9
			"/>
	</g>
	<g class="st3">
		<path class="st2" d="M50.6,18.2c-1.3,0-2.3-1.1-2.3-2.4s1-2.4,2.3-2.4c1.3,0,2.3,1.1,2.3,2.4S51.8,18.2,50.6,18.2"/>
	</g>
	<g class="st3">
		<path class="st2" d="M43.4,18.2c-1.3,0-2.3-1.1-2.3-2.4s1-2.4,2.3-2.4c1.3,0,2.3,1.1,2.3,2.4S44.6,18.2,43.4,18.2"/>
	</g>
</g>
<g>
	<path class="st4" d="M54.7,29.1c-0.5,0-1.1-0.3-1.4-0.7c-0.5-0.8-0.4-1.9,0.4-2.4l4.9-3.4v-3.6c0-1,0.8-1.7,1.7-1.7
		s1.7,0.8,1.7,1.7v5.4l-6.4,4.5C55.4,29,55,29.1,54.7,29.1z"/>
</g>
<g>
	<path class="st4" d="M38.8,29.1c-0.3,0-0.7-0.1-1-0.3l-6.4-4.5v-5.4c0-1,0.8-1.7,1.7-1.7s1.7,0.8,1.7,1.7v3.6l4.9,3.4
		c0.8,0.5,1,1.6,0.4,2.4C39.9,28.9,39.4,29.1,38.8,29.1z"/>
</g>
<g>
	<path class="st4" d="M60.4,46.5c-1,0-1.7-0.8-1.7-1.7v-3.6l-4.9-3.4c-0.8-0.5-1-1.6-0.4-2.4c0.5-0.8,1.6-1,2.4-0.4l6.4,4.5v5.4
		C62.1,45.7,61.3,46.5,60.4,46.5z"/>
</g>
<g>
	<path class="st4" d="M33.1,46.5c-1,0-1.7-0.8-1.7-1.7v-5.4l6.4-4.5c0.8-0.5,1.9-0.4,2.4,0.4c0.5,0.8,0.4,1.9-0.4,2.4l-4.9,3.4v3.6
		C34.9,45.7,34.1,46.5,33.1,46.5z"/>
</g>
<g>
	<path class="st4" d="M63.5,37.3c-1,0-1.7-0.8-1.7-1.7V32l-4.9-3.4c-0.8-0.5-1-1.6-0.4-2.4c0.5-0.8,1.6-1,2.4-0.4l6.4,4.5v5.4
		C65.3,36.6,64.5,37.3,63.5,37.3z"/>
</g>
<g>
	<path class="st4" d="M30,37.3c-1,0-1.7-0.8-1.7-1.7v-5.4l6.4-4.5c0.8-0.5,1.9-0.4,2.4,0.4c0.5,0.8,0.4,1.9-0.4,2.4L31.7,32v3.6
		C31.7,36.6,31,37.3,30,37.3z"/>
</g>
</svg>
