<?xml version="1.0" encoding="utf-8"?>
<!-- Generator: Adobe Illustrator 20.0.0, SVG Export Plug-In . SVG Version: 6.00 Build 0)  -->
<svg version="1.1" id="Layer_1" xmlns="http://www.w3.org/2000/svg" xmlns:xlink="http://www.w3.org/1999/xlink" x="0px" y="0px"
	 viewBox="0 0 93.5 82.2" style="enable-background:new 0 0 93.5 82.2;" xml:space="preserve">
<style type="text/css">
	.st0{fill:#4A4A49;}
	.st1{fill:#FFFFFF;}
	.st2{fill:#C6C6C6;}
	.st3{fill:#E30613;}
</style>
<g>
	<path class="st0" d="M13.6,0C13.6,0,0,0,0,13.6v55c0,0,0,13.6,13.6,13.6h66.3c0,0,13.6,0,13.6-13.6v-55c0,0,0-13.6-13.6-13.6H13.6"
		/>
	<path class="st1" d="M66.9,64.8L66.9,64.8l0-4.7c0,0,0-14.6-12.9-18.1c-3.6,4-8.9,6.6-14.7,6.6c-5.8,0-10.9-2.5-14.5-6.4
		c-5.5,1.6-13.1,6-13.1,17.9v4.7l0,0c0,0,0,0,0,0c0,2.2,1.8,4,4,4c0,0,0,0,0,0l0,0h47.3h0C65.1,68.8,66.9,67,66.9,64.8
		C66.9,64.8,66.9,64.8,66.9,64.8"/>
	<path class="st0" d="M28.2,53.7c0-7.7-6.2-13.9-13.9-13.9S0.4,46.1,0.4,53.7s6.2,13.9,13.9,13.9S28.2,61.4,28.2,53.7"/>
	<path class="st2" d="M72,41.6c5.2,0,9.5-4.2,9.5-9.5c0-5.2-4.2-9.5-9.5-9.5c-5.2,0-9.5,4.2-9.5,9.5C62.5,37.3,66.8,41.6,72,41.6"/>
	<path class="st2" d="M89.1,54.4L89.1,54.4l0-2.9c0,0,0-9.1-8-11.2c-2.2,2.5-5.5,4.1-9.1,4.1c-3.6,0-6.8-1.5-9-4
		c-1.2,0.4-2.6,0.9-3.8,1.8c5.3,2.8,9,8.2,9.5,14.6h17.9c0,0,0,0,0,0C88,56.8,89.1,55.7,89.1,54.4C89.1,54.4,89.1,54.4,89.1,54.4"/>
	<path class="st1" d="M39.3,44.1c8.4,0,15.3-6.8,15.3-15.3s-6.8-15.3-15.3-15.3S24,20.4,24,28.8S30.8,44.1,39.3,44.1"/>
	<path class="st3" d="M24.8,53.7c0-5.8-4.7-10.5-10.5-10.5c-5.8,0-10.5,4.7-10.5,10.5s4.7,10.5,10.5,10.5
		C20.1,64.2,24.8,59.5,24.8,53.7"/>
</g>
<rect x="12.7" y="47.2" transform="matrix(0.7071 -0.7071 0.7071 0.7071 -33.8103 25.8323)" class="st1" width="3.1" height="13.1"/>
<rect x="7.7" y="52.2" transform="matrix(0.7071 -0.7071 0.7071 0.7071 -33.8105 25.8321)" class="st1" width="13.1" height="3.1"/>
</svg>
