<?xml version="1.0" encoding="utf-8"?>
<!-- Generator: Adobe Illustrator 20.0.0, SVG Export Plug-In . SVG Version: 6.00 Build 0)  -->
<svg version="1.1" id="Layer_1" xmlns="http://www.w3.org/2000/svg" xmlns:xlink="http://www.w3.org/1999/xlink" x="0px" y="0px"
	 viewBox="0 0 93.5 82.2" style="enable-background:new 0 0 93.5 82.2;" xml:space="preserve">
<style type="text/css">
	.st0{fill:#4A4A49;}
	.st1{fill:#FFFFFF;}
	.st2{fill:#E30613;}
</style>
<g>
	<path class="st0" d="M13.6,0C13.6,0,0,0,0,13.6v55c0,0,0,13.6,13.6,13.6h66.3c0,0,13.6,0,13.6-13.6v-55c0,0,0-13.6-13.6-13.6H13.6"
		/>
	<path class="st1" d="M69.4,13.5c-1.6,0-2.8,1.3-2.8,2.8c0,1.6,1.3,2.8,2.8,2.8c1.6,0,2.8-1.3,2.8-2.8C72.2,14.8,71,13.5,69.4,13.5
		 M60.9,13.5c-1.6,0-2.8,1.3-2.8,2.8c0,1.6,1.3,2.8,2.8,2.8c1.6,0,2.8-1.3,2.8-2.8C63.7,14.8,62.5,13.5,60.9,13.5 M75.1,24.8H49.6
		v3.7h2.8c1.6,0,2.8,1.3,2.8,2.8h19.8c1.6,0,2.8,1.3,2.8,2.8c0,1.6-1.3,2.8-2.8,2.8H55.2c0,1.6-1.3,2.8-2.8,2.8H41.1
		c-1.6,0-2.8-1.3-2.8-2.8H18.4c-1.6,0-2.8-1.3-2.8-2.8c0-1.6,1.3-2.8,2.8-2.8h19.8c0-1.6,1.3-2.8,2.8-2.8h2.8v-3.7H18.4
		c-1.6,0-2.8-1.3-2.8-2.8V10.7c0-1.6,1.3-2.8,2.8-2.8h56.6c1.6,0,2.8,1.3,2.8,2.8V22C77.9,23.6,76.6,24.8,75.1,24.8"/>
	<path class="st2" d="M61.6,60.1c0-8.2-6.7-14.9-14.9-14.9s-14.9,6.7-14.9,14.9S38.5,75,46.7,75S61.6,68.3,61.6,60.1"/>
</g>
<polygon class="st1" points="54.9,51.9 54.9,51.9 54.9,51.9 54.9,52 37.2,58.3 43.8,63.1 48.6,69.7 54.9,52 "/>
<rect x="37.5" y="62.2" transform="matrix(0.7071 -0.7071 0.7071 0.7071 -33.0395 48.9016)" class="st1" width="10" height="4.3"/>
</svg>
