<?xml version="1.0" encoding="utf-8"?>
<!-- Generator: Adobe Illustrator 20.0.0, SVG Export Plug-In . SVG Version: 6.00 Build 0)  -->
<svg version="1.1" id="Layer_1" xmlns="http://www.w3.org/2000/svg" xmlns:xlink="http://www.w3.org/1999/xlink" x="0px" y="0px"
	 viewBox="0 0 93.5 82.2" style="enable-background:new 0 0 93.5 82.2;" xml:space="preserve">
<style type="text/css">
	.st0{fill:#4A4A49;}
	.st1{fill:none;stroke:#000000;stroke-width:0.559;}
	.st2{fill:#E30613;}
	.st3{fill:#FFFFFF;}
</style>
<g>
	<path class="st0" d="M13.6,0C13.6,0,0,0,0,13.6v55c0,0,0,13.6,13.6,13.6h66.3c0,0,13.6,0,13.6-13.6v-55c0,0,0-13.6-13.6-13.6H13.6"
		/>
</g>
<path class="st1" d="M36.1,37.7"/>
<g>
	<path class="st2" d="M73.3,41.2c0-14.6-11.9-26.5-26.5-26.5c-14.6,0-26.5,11.9-26.5,26.5s11.9,26.5,26.5,26.5
		C61.4,67.7,73.3,55.8,73.3,41.2"/>
</g>
<rect x="42.3" y="22.3" transform="matrix(0.7071 -0.7071 0.7071 0.7071 -15.409 45.1459)" class="st3" width="8.9" height="37.8"/>
<rect x="27.9" y="36.7" transform="matrix(0.7071 -0.7071 0.7071 0.7071 -15.4091 45.1457)" class="st3" width="37.8" height="8.9"/>
</svg>
