<?xml version="1.0" encoding="utf-8"?>
<!-- Generator: Adobe Illustrator 20.0.0, SVG Export Plug-In . SVG Version: 6.00 Build 0)  -->
<svg version="1.1" id="Layer_1" xmlns="http://www.w3.org/2000/svg" xmlns:xlink="http://www.w3.org/1999/xlink" x="0px" y="0px"
	 viewBox="0 0 93.5 82.2" style="enable-background:new 0 0 93.5 82.2;" xml:space="preserve">
<style type="text/css">
	.st0{fill:#4A4A49;}
	.st1{fill:none;stroke:#000000;stroke-width:0.459;}
	.st2{fill:#FFFFFF;}
	.st3{fill:#3FA535;}
</style>
<g>
	<g>
		<path class="st0" d="M13.6,82.2C3,82.2,0,73.6,0,68.6v-55C0,3,8.5,0,13.6,0h66.3c10.7,0,13.6,8.5,13.6,13.6v55
			c0,10.7-8.5,13.6-13.6,13.6H13.6z M13.6,5C11.6,5,5,5.7,5,13.6v55c0,2,0.7,8.6,8.6,8.6h66.3c2,0,8.6-0.7,8.6-8.6v-55
			c0-2-0.7-8.6-8.6-8.6H13.6z"/>
	</g>
	<g>
		<path class="st0" d="M2.9,18.9v48.6c0,0,0,12,12.7,12h61.9c0,0,12.7,0,12.7-12V18.9"/>
	</g>
</g>
<g>
	<path class="st1" d="M31.9,46.6"/>
</g>
<g>
	<g>
		<path class="st0" d="M14.7,16.4c2.1,0,3.7-1.7,3.7-3.7S16.7,9,14.7,9s-3.7,1.7-3.7,3.7S12.6,16.4,14.7,16.4"/>
	</g>
	<g>
		<path class="st0" d="M24.2,16.4c2.1,0,3.7-1.7,3.7-3.7S26.2,9,24.2,9s-3.7,1.7-3.7,3.7S22.1,16.4,24.2,16.4"/>
	</g>
	<g>
		<path class="st2" d="M45.8,36.8c0-4.8-3.9-8.7-8.7-8.7c-4.8,0-8.7,3.9-8.7,8.7c0,4.8,3.9,8.7,8.7,8.7
			C41.9,45.6,45.8,41.6,45.8,36.8"/>
	</g>
	<g>
		<path class="st2" d="M45.8,67.6c0-4.8-3.9-8.7-8.7-8.7c-4.8,0-8.7,3.9-8.7,8.7c0,4.8,3.9,8.7,8.7,8.7
			C41.9,76.4,45.8,72.5,45.8,67.6"/>
	</g>
</g>
<g>
	<rect x="35" y="39.4" class="st2" width="4.1" height="23.9"/>
</g>
<g>
	<g>
		<path class="st3" d="M86.6,34.3l-9.2-9.2c-1.3-1.3-3.4-1.3-4.6,0c-1.3,1.3-1.3,3.4,0,4.6l3.6,3.6H54.2c-1.8,0-3.3,1.5-3.3,3.3
			c0,1.8,1.5,3.3,3.3,3.3h22.3l-3.6,3.6c-1.3,1.3-1.3,3.4,0,4.6c0.6,0.6,1.5,1,2.3,1c0.8,0,1.7-0.3,2.3-1l9.2-9.2
			c0.6-0.6,1-1.4,1-2.3S87.2,35,86.6,34.3"/>
	</g>
</g>
</svg>
