<?xml version="1.0" encoding="utf-8"?>
<!-- Generator: Adobe Illustrator 20.0.0, SVG Export Plug-In . SVG Version: 6.00 Build 0)  -->
<svg version="1.1" id="Layer_1" xmlns="http://www.w3.org/2000/svg" xmlns:xlink="http://www.w3.org/1999/xlink" x="0px" y="0px"
	 viewBox="0 0 93.5 82.2" style="enable-background:new 0 0 93.5 82.2;" xml:space="preserve">
<style type="text/css">
	.st0{fill:#4A4A49;}
	.st1{fill:#FFFFFF;}
	.st2{fill:#B2B2B2;}
	.st3{fill:#009FE3;}
</style>
<g>
	<g>
		<path class="st0" d="M13.6,0C13.6,0,0,0,0,13.6v55c0,0,0,13.6,13.6,13.6h66.3c0,0,13.6,0,13.6-13.6v-55c0,0,0-13.6-13.6-13.6H13.6
			"/>
	</g>
	<g>
		<path class="st1" d="M16.5,16c0,0-6.3,0-6.3,7.3v35.6c0,0,0,7.3,7.3,7.3h58.4c0,0,7.3,0,7.3-7.3V23.3c0,0,0-7.3-7.3-7.3H17.5"/>
	</g>
</g>
<g>
	<path class="st2" d="M46.7,61.6c-0.4,0-0.9-0.2-1.2-0.5L15.1,30.7c-0.7-0.7-0.7-1.8,0-2.5c0.7-0.7,1.8-0.7,2.5,0l29.1,29.1
		l29.1-29.1c0.7-0.7,1.8-0.7,2.5,0c0.7,0.7,0.7,1.8,0,2.5L47.9,61.1C47.6,61.4,47.1,61.6,46.7,61.6z"/>
</g>
<g>
	<path class="st2" d="M77,62c-0.4,0-0.9-0.2-1.2-0.5L61,46.7c-0.7-0.7-0.7-1.8,0-2.5c0.7-0.7,1.8-0.7,2.5,0L78.3,59
		c0.7,0.7,0.7,1.8,0,2.5C77.9,61.8,77.5,62,77,62z"/>
</g>
<g>
	<path class="st2" d="M16.3,62c-0.4,0-0.9-0.2-1.2-0.5c-0.7-0.7-0.7-1.8,0-2.5L30,44.1c0.7-0.7,1.8-0.7,2.5,0c0.7,0.7,0.7,1.8,0,2.5
		L17.6,61.5C17.2,61.8,16.8,62,16.3,62z"/>
</g>
<g>
	<g>
		<path class="st3" d="M31.8,33.5c0,0,0,1.5,1.5,1.5h5.8c0,0,1.5,0,1.5-1.5V33c0,0,0-1.5-1.5-1.5h-5.8c0,0-1.5,0-1.5,1.5V33.5"/>
	</g>
	<g>
		<path class="st3" d="M57.2,43.6c0,0,1-1,0-2.1l-4.1-4.1c0,0-1-1-2.1,0l-0.3,0.3c0,0-1,1,0,2.1l4.1,4.1c0,0,1,1,2.1,0L57.2,43.6"/>
	</g>
	<g>
		<path class="st3" d="M46.5,18.5c0,0-1.5,0-1.5,1.5v5.8c0,0,0,1.5,1.5,1.5H47c0,0,1.5,0,1.5-1.5V20c0,0,0-1.5-1.5-1.5H46.5"/>
	</g>
	<g>
		<path class="st3" d="M61.6,33.1c0,0,0-1.5-1.5-1.5h-5.8c0,0-1.5,0-1.5,1.5v0.5c0,0,0,1.5,1.5,1.5h5.8c0,0,1.5,0,1.5-1.5V33.1"/>
	</g>
	<g>
		<path class="st3" d="M35.9,22.7c0,0-1,1,0,2.1l4.1,4.1c0,0,1,1,2.1,0l0.3-0.3c0,0,1-1,0-2.1l-4.1-4.1c0,0-1-1-2.1,0L35.9,22.7"/>
	</g>
	<g>
		<path class="st3" d="M46.8,48c0,0,1.5,0,1.5-1.5v-5.8c0,0,0-1.5-1.5-1.5h-0.5c0,0-1.5,0-1.5,1.5v5.8c0,0,0,1.5,1.5,1.5H46.8"/>
	</g>
	<g>
		<path class="st3" d="M36.4,43.8c0,0,1,1,2.1,0l4.1-4.1c0,0,1-1,0-2.1l-0.3-0.3c0,0-1-1-2.1,0L36,41.4c0,0-1,1,0,2.1L36.4,43.8"/>
	</g>
	<g>
		<path class="st3" d="M56.8,22.7c0,0-1-1-2.1,0l-4.1,4.1c0,0-1,1,0,2.1l0.3,0.3c0,0,1,1,2.1,0l4.1-4.1c0,0,1-1,0-2.1L56.8,22.7"/>
	</g>
</g>
</svg>
