<?xml version="1.0" encoding="utf-8"?>
<!-- Generator: Adobe Illustrator 20.0.0, SVG Export Plug-In . SVG Version: 6.00 Build 0)  -->
<svg version="1.1" id="Layer_1" xmlns="http://www.w3.org/2000/svg" xmlns:xlink="http://www.w3.org/1999/xlink" x="0px" y="0px"
	 viewBox="0 0 93.5 82.2" style="enable-background:new 0 0 93.5 82.2;" xml:space="preserve">
<style type="text/css">
	.st0{fill:#4A4A49;}
	.st1{fill:#FFFFFF;}
	.st2{fill:#E30613;}
</style>
<g>
	<path class="st0" d="M13.6,0C13.6,0,0,0,0,13.6v55c0,0,0,13.6,13.6,13.6h66.3c0,0,13.6,0,13.6-13.6v-55c0,0,0-13.6-13.6-13.6H13.6"
		/>
	<path class="st1" d="M85.8,69.8L85.8,69.8l0-4.7c0,0,0-14.6-12.9-18.1c-3.6,4-8.9,6.6-14.7,6.6c-5.8,0-10.9-2.5-14.5-6.4
		c-5.5,1.6-13.1,6-13.1,17.9v4.7l0,0c0,0,0,0,0,0c0,2.2,1.8,4,4,4c0,0,0,0,0,0l0,0h47.3h0C84,73.8,85.8,72,85.8,69.8
		C85.8,69.8,85.8,69.8,85.8,69.8"/>
	<path class="st1" d="M58.2,49.1c8.4,0,15.3-6.8,15.3-15.3s-6.8-15.3-15.3-15.3s-15.3,6.8-15.3,15.3S49.7,49.1,58.2,49.1"/>
	<path class="st1" d="M15.3,14.9H8.5c-1.2,0-2.2,1-2.2,2.2s1,2.2,2.2,2.2h6.7c1.2,0,2.2-1,2.2-2.2S16.5,14.9,15.3,14.9"/>
	<path class="st1" d="M15.3,32.6H8.5c-1.2,0-2.2,1-2.2,2.2s1,2.2,2.2,2.2h6.7c1.2,0,2.2-1,2.2-2.2S16.5,32.6,15.3,32.6"/>
	<path class="st2" d="M34.5,20.1l-8.7-8.7c-0.8-0.8-2.1-0.8-2.9,0s-0.8,2.1,0,2.9l8.7,8.7c0.8,0.8,2.1,0.8,2.9,0
		C35.3,22.2,35.3,20.9,34.5,20.1"/>
	<path class="st2" d="M34.5,37.7L25.8,29c-0.8-0.8-2.1-0.8-2.9,0s-0.8,2.1,0,2.9l8.7,8.7c0.8,0.8,2.1,0.8,2.9,0
		C35.3,39.8,35.3,38.5,34.5,37.7"/>
	<path class="st2" d="M25.8,23l8.7-8.7c0.8-0.8,0.8-2.1,0-2.9s-2.1-0.8-2.9,0l-8.7,8.7c-0.8,0.8-0.8,2.1,0,2.9
		C23.7,23.8,25,23.8,25.8,23"/>
	<path class="st2" d="M25.8,40.6l8.7-8.7c0.8-0.8,0.8-2.1,0-2.9s-2.1-0.8-2.9,0l-8.7,8.7c-0.8,0.8-0.8,2.1,0,2.9
		C23.7,41.4,25,41.4,25.8,40.6"/>
</g>
</svg>
