<?xml version="1.0" encoding="utf-8"?>
<!-- Generator: Adobe Illustrator 20.0.0, SVG Export Plug-In . SVG Version: 6.00 Build 0)  -->
<svg version="1.1" id="Layer_1" xmlns="http://www.w3.org/2000/svg" xmlns:xlink="http://www.w3.org/1999/xlink" x="0px" y="0px"
	 viewBox="0 0 93.5 82.2" style="enable-background:new 0 0 93.5 82.2;" xml:space="preserve">
<style type="text/css">
	.st0{fill:#4A4A49;}
	.st1{fill:none;stroke:#000000;stroke-width:0.459;}
	.st2{fill:#FFFFFF;}
	.st3{fill:#009FE3;}
</style>
<g>
	<g>
		<path class="st0" d="M13.6,82.2C3,82.2,0,73.6,0,68.6v-55C0,3,8.5,0,13.6,0h66.3c10.7,0,13.6,8.5,13.6,13.6v55
			c0,10.7-8.5,13.6-13.6,13.6H13.6z M13.6,5C11.6,5,5,5.7,5,13.6v55c0,2,0.7,8.6,8.6,8.6h66.3c2,0,8.6-0.7,8.6-8.6v-55
			c0-2-0.7-8.6-8.6-8.6H13.6z"/>
	</g>
	<g>
		<path class="st0" d="M2.8,19v48.6c0,0,0,12,12.7,12h61.9c0,0,12.7,0,12.7-12V19"/>
	</g>
</g>
<g>
	<path class="st1" d="M29,46.7"/>
</g>
<g>
	<g>
		<path class="st0" d="M14.6,16.5c2.1,0,3.7-1.7,3.7-3.7c0-2.1-1.7-3.7-3.7-3.7s-3.7,1.7-3.7,3.7C10.9,14.9,12.5,16.5,14.6,16.5"/>
	</g>
	<g>
		<path class="st0" d="M24.1,16.5c2.1,0,3.7-1.7,3.7-3.7c0-2.1-1.7-3.7-3.7-3.7s-3.7,1.7-3.7,3.7C20.4,14.9,22.1,16.5,24.1,16.5"/>
	</g>
	<g>
		<path class="st2" d="M28,36.8c0-4.8-3.9-8.7-8.7-8.7c-4.8,0-8.7,3.9-8.7,8.7c0,4.8,3.9,8.7,8.7,8.7C24.1,45.6,28,41.6,28,36.8"/>
	</g>
	<g>
		<path class="st2" d="M28,67.6c0-4.8-3.9-8.7-8.7-8.7c-4.8,0-8.7,3.9-8.7,8.7c0,4.8,3.9,8.7,8.7,8.7C24.1,76.4,28,72.5,28,67.6"/>
	</g>
</g>
<g>
	<rect x="17.2" y="39.4" class="st2" width="4.1" height="23.9"/>
</g>
<g>
	<g>
		<path class="st3" d="M41.6,31.6c0,0-2.4,2.6-3.1,5.4c-0.7,2.9-0.5,6.1-0.1,7.8c0.3,1.7,1.9,7,6.4,12.6c2.5,3.1,3.8,4.6,4.5,5.3
			c0.6,0.7,1.9,2.2,4.8,5c5.2,5,10.2,7.2,11.9,7.7c1.6,0.5,4.9,1.1,7.8,0.7c2.9-0.4,5.7-2.5,5.7-2.5s3.2-3.6,3.7-5.7
			c0.5-2.1-0.4-2.7-0.4-2.7s-10.1-6.8-11.5-7.7c-1.4-1-2.4,0.1-2.4,0.1l-2.7,2.5c0,0-0.3,0.3-1-0.1c-2.2-1.2-4.5-3.5-5.9-5l0,0
			c0,0-0.2-0.2-0.6-0.6c-0.4-0.4-0.6-0.7-0.6-0.7l0,0c-1.3-1.5-3.4-4.1-4.4-6.4c-0.4-0.8,0-1,0-1l2.7-2.5c0,0,1.2-0.8,0.4-2.4
			s-6.5-12.2-6.5-12.2s-0.4-0.9-2.6-0.6C45.4,28.8,41.6,31.6,41.6,31.6"/>
	</g>
</g>
</svg>
