<?xml version="1.0" encoding="utf-8"?>
<!-- Generator: Adobe Illustrator 20.0.0, SVG Export Plug-In . SVG Version: 6.00 Build 0)  -->
<svg version="1.1" id="Layer_1" xmlns="http://www.w3.org/2000/svg" xmlns:xlink="http://www.w3.org/1999/xlink" x="0px" y="0px"
	 viewBox="0 0 93.5 82.2" style="enable-background:new 0 0 93.5 82.2;" xml:space="preserve">
<style type="text/css">
	.st0{fill:#4A4A49;}
	.st1{fill:none;stroke:#000000;stroke-width:0.459;}
	.st2{fill:#FFFFFF;}
	.st3{fill:#B2B2B2;}
</style>
<g>
	<g>
		<path class="st0" d="M13.6,82.2C3,82.2,0,73.6,0,68.6v-55C0,3,8.5,0,13.6,0h66.3c10.7,0,13.6,8.5,13.6,13.6v55
			c0,10.7-8.5,13.6-13.6,13.6H13.6z M13.6,5C11.6,5,5,5.7,5,13.6v55c0,2,0.7,8.6,8.6,8.6h66.3c2,0,8.6-0.7,8.6-8.6v-55
			c0-2-0.7-8.6-8.6-8.6H13.6z"/>
	</g>
	<g>
		<path class="st0" d="M2.8,19v48.6c0,0,0,12,12.7,12h61.9c0,0,12.7,0,12.7-12V19"/>
	</g>
</g>
<g>
	<path class="st1" d="M29,46.7"/>
</g>
<g>
	<g>
		<path class="st0" d="M14.6,16.5c2.1,0,3.7-1.7,3.7-3.7c0-2.1-1.7-3.7-3.7-3.7s-3.7,1.7-3.7,3.7C10.9,14.9,12.5,16.5,14.6,16.5"/>
	</g>
	<g>
		<path class="st0" d="M24.1,16.5c2.1,0,3.7-1.7,3.7-3.7c0-2.1-1.7-3.7-3.7-3.7s-3.7,1.7-3.7,3.7C20.4,14.9,22.1,16.5,24.1,16.5"/>
	</g>
	<g>
		<path class="st2" d="M28,36.8c0-4.8-3.9-8.7-8.7-8.7c-4.8,0-8.7,3.9-8.7,8.7c0,4.8,3.9,8.7,8.7,8.7C24.1,45.6,28,41.6,28,36.8"/>
	</g>
	<g>
		<path class="st2" d="M28,67.6c0-4.8-3.9-8.7-8.7-8.7c-4.8,0-8.7,3.9-8.7,8.7c0,4.8,3.9,8.7,8.7,8.7C24.1,76.4,28,72.5,28,67.6"/>
	</g>
</g>
<g>
	<rect x="17.2" y="39.4" class="st2" width="4.1" height="23.9"/>
</g>
<g>
	<g>
		<path class="st2" d="M40,44c0,0-4.1,0-4.1,4.7v23c0,0,0,4.7,4.7,4.7h37.7c0,0,4.7,0,4.7-4.7v-23c0,0,0-4.7-4.7-4.7H40.6"/>
	</g>
</g>
<g>
	<path class="st3" d="M59.5,73.4c-0.3,0-0.6-0.1-0.8-0.3L39.1,53.5c-0.4-0.4-0.4-1.2,0-1.6c0.4-0.4,1.2-0.4,1.6,0l18.8,18.8
		l18.8-18.8c0.4-0.4,1.2-0.4,1.6,0c0.4,0.4,0.4,1.2,0,1.6L60.3,73.1C60,73.3,59.7,73.4,59.5,73.4z"/>
</g>
<g>
	<path class="st3" d="M79,73.7c-0.3,0-0.6-0.1-0.8-0.3l-9.6-9.6c-0.4-0.4-0.4-1.2,0-1.6c0.4-0.4,1.2-0.4,1.6,0l9.6,9.6
		c0.4,0.4,0.4,1.2,0,1.6C79.6,73.6,79.3,73.7,79,73.7z"/>
</g>
<g>
	<path class="st3" d="M39.9,73.7c-0.3,0-0.6-0.1-0.8-0.3c-0.4-0.4-0.4-1.2,0-1.6l9.6-9.6c0.4-0.4,1.2-0.4,1.6,0
		c0.4,0.4,0.4,1.2,0,1.6l-9.6,9.6C40.4,73.6,40.2,73.7,39.9,73.7z"/>
</g>
</svg>
