<?xml version="1.0" encoding="utf-8"?>
<!-- Generator: Adobe Illustrator 20.0.0, SVG Export Plug-In . SVG Version: 6.00 Build 0)  -->
<svg version="1.1" id="Layer_1" xmlns="http://www.w3.org/2000/svg" xmlns:xlink="http://www.w3.org/1999/xlink" x="0px" y="0px"
	 viewBox="0 0 93.5 82.2" style="enable-background:new 0 0 93.5 82.2;" xml:space="preserve">
<style type="text/css">
	.st0{fill:#4A4A49;}
	.st1{fill:none;stroke:#000000;stroke-width:0.459;}
	.st2{fill:#FFFFFF;}
	.st3{fill:#009FE3;}
</style>
<g>
	<g>
		<path class="st0" d="M13.6,82.2C2.9,82.2,0,73.6,0,68.6v-55C0,2.9,8.5,0,13.6,0h66.3c10.7,0,13.6,8.5,13.6,13.6v55
			c0,10.7-8.5,13.6-13.6,13.6H13.6z M13.6,5C11.6,5,5,5.7,5,13.6v55c0,2,0.7,8.6,8.6,8.6h66.3c2,0,8.6-0.7,8.6-8.6v-55
			c0-2-0.7-8.6-8.6-8.6H13.6z"/>
	</g>
	<g>
		<path class="st0" d="M2.8,19v48.6c0,0,0,12,12.7,12h61.9c0,0,12.7,0,12.7-12V19"/>
	</g>
</g>
<g>
	<path class="st1" d="M28.9,46.6"/>
</g>
<g>
	<g>
		<path class="st0" d="M14.6,16.5c2.1,0,3.7-1.7,3.7-3.7c0-2.1-1.7-3.7-3.7-3.7s-3.7,1.7-3.7,3.7C10.9,14.9,12.5,16.5,14.6,16.5"/>
	</g>
	<g>
		<path class="st0" d="M24.1,16.5c2.1,0,3.7-1.7,3.7-3.7c0-2.1-1.7-3.7-3.7-3.7s-3.7,1.7-3.7,3.7C20.4,14.9,22,16.5,24.1,16.5"/>
	</g>
	<g>
		<path class="st2" d="M28,36.8c0-4.8-3.9-8.7-8.7-8.7c-4.8,0-8.7,3.9-8.7,8.7s3.9,8.7,8.7,8.7C24.1,45.5,28,41.6,28,36.8"/>
	</g>
	<g>
		<path class="st2" d="M28,67.6c0-4.8-3.9-8.7-8.7-8.7c-4.8,0-8.7,3.9-8.7,8.7s3.9,8.7,8.7,8.7C24.1,76.3,28,72.4,28,67.6"/>
	</g>
</g>
<g>
	<rect x="17.2" y="39.4" class="st2" width="4.1" height="23.9"/>
</g>
<path class="st2" d="M76.2,28H45.3h-0.9c0,0-5.6,0-5.6,6.5v28.2c0,0,0,4.4,3.6,5.9v7.6l7-7h26.9c0,0,6.5,0,6.5-6.5V34.6
	C82.7,34.6,82.7,28,76.2,28z"/>
<g>
	<g>
		<path class="st3" d="M60.7,49.7c4.2,0,7.6-3.4,7.6-7.6s-3.4-7.7-7.6-7.7s-7.7,3.4-7.7,7.7S56.5,49.7,60.7,49.7"/>
	</g>
	<g>
		<path class="st3" d="M74.5,60L74.5,60l0-2.3c0,0,0-7.3-6.5-9.1c-1.8,2-4.4,3.3-7.4,3.3c-2.9,0-5.5-1.3-7.4-3.3
			c-6.5,1.7-6.5,9.1-6.5,9.1V60l0,0c0,0,0,0,0,0c0,1.1,0.9,2,2,2h0h11.8h11.8c0,0,0,0,0,0C73.7,62,74.5,61.1,74.5,60
			C74.5,60,74.5,60,74.5,60"/>
	</g>
</g>
</svg>
