<?xml version="1.0" encoding="utf-8"?>
<!-- Generator: Adobe Illustrator 20.0.0, SVG Export Plug-In . SVG Version: 6.00 Build 0)  -->
<svg version="1.1" id="Layer_1" xmlns="http://www.w3.org/2000/svg" xmlns:xlink="http://www.w3.org/1999/xlink" x="0px" y="0px"
	 viewBox="0 0 93.5 82.2" style="enable-background:new 0 0 93.5 82.2;" xml:space="preserve">
<style type="text/css">
	.st0{fill:#4A4A49;}
	.st1{fill:#FFFFFF;}
	.st2{fill:#B2B2B2;}
	.st3{fill:#3FA535;}
</style>
<g>
	<g>
		<path class="st0" d="M13.6,0C13.6,0,0,0,0,13.6v55c0,0,0,13.6,13.6,13.6h66.3c0,0,13.6,0,13.6-13.6v-55c0,0,0-13.6-13.6-13.6H13.6
			"/>
	</g>
	<g>
		<path class="st1" d="M16.5,16.1c0,0-6.3,0-6.3,7.3V59c0,0,0,7.3,7.3,7.3H76c0,0,7.3,0,7.3-7.3V23.3c0,0,0-7.3-7.3-7.3H17.5"/>
	</g>
</g>
<g>
	<path class="st2" d="M46.7,61.7c-0.4,0-0.9-0.2-1.2-0.5L15.1,30.8c-0.7-0.7-0.7-1.8,0-2.5c0.7-0.7,1.8-0.7,2.5,0l29.2,29.2
		l29.2-29.2c0.7-0.7,1.8-0.7,2.5,0c0.7,0.7,0.7,1.8,0,2.5L48,61.2C47.6,61.5,47.2,61.7,46.7,61.7z"/>
</g>
<g>
	<path class="st2" d="M77.1,62.1c-0.4,0-0.9-0.2-1.2-0.5L61,46.7c-0.7-0.7-0.7-1.8,0-2.5s1.8-0.7,2.5,0l14.9,14.9
		c0.7,0.7,0.7,1.8,0,2.5C78,61.9,77.6,62.1,77.1,62.1z"/>
</g>
<g>
	<path class="st2" d="M16.3,62.1c-0.4,0-0.9-0.2-1.2-0.5c-0.7-0.7-0.7-1.8,0-2.5L30,44.2c0.7-0.7,1.8-0.7,2.5,0s0.7,1.8,0,2.5
		L17.6,61.6C17.2,61.9,16.8,62.1,16.3,62.1z"/>
</g>
<g>
	<g>
		<path class="st3" d="M60.4,30.4L60.4,30.4l-20.2-9.7l0,0c-0.2-0.1-0.4-0.2-0.7-0.2c-0.9,0-1.6,0.7-1.6,1.7c0,0.2,0,0.4,0.1,0.5
			l0,0l3.6,9.2L38,41.1l0,0c-0.1,0.2-0.1,0.4-0.1,0.5c0,0.9,0.7,1.7,1.6,1.7c0.3,0,0.5-0.1,0.7-0.2l0,0l20.2-9.7l0,0
			c0.5-0.3,0.9-0.8,0.9-1.5C61.4,31.3,61,30.7,60.4,30.4"/>
	</g>
</g>
</svg>
