<?xml version="1.0" encoding="utf-8"?>
<!-- Generator: Adobe Illustrator 20.0.0, SVG Export Plug-In . SVG Version: 6.00 Build 0)  -->
<svg version="1.1" id="Layer_1" xmlns="http://www.w3.org/2000/svg" xmlns:xlink="http://www.w3.org/1999/xlink" x="0px" y="0px"
	 viewBox="0 0 93.5 82.2" style="enable-background:new 0 0 93.5 82.2;" xml:space="preserve">
<style type="text/css">
	.st0{fill:#4A4A49;}
	.st1{fill:#C6C6C6;}
	.st2{fill:#FFFFFF;}
	.st3{fill:#3FA535;}
</style>
<g>
	<path class="st0" d="M13.6,0C13.6,0,0,0,0,13.6v55c0,0,0,13.6,13.6,13.6h66.3c0,0,13.6,0,13.6-13.6v-55c0,0,0-13.6-13.6-13.6H13.6"
		/>
	<path class="st1" d="M21.7,61.6c4.8,0,8.6-3.9,8.6-8.6s-3.9-8.6-8.6-8.6s-8.6,3.9-8.6,8.6S17,61.6,21.7,61.6"/>
	<path class="st1" d="M37.4,73.3L37.4,73.3l0-2.7c0,0,0-8.3-7.3-10.3c-2,2.3-5,3.7-8.3,3.7c-3.3,0-6.3-1.5-8.3-3.7
		c-7.3,2-7.3,10.3-7.3,10.3v2.6l0,0c0,0,0,0,0,0c0,1.2,1,2.3,2.3,2.3c0,0,0,0,0,0h13.4h13.4h0C36.4,75.5,37.4,74.5,37.4,73.3
		C37.4,73.3,37.4,73.3,37.4,73.3"/>
</g>
<path class="st2" d="M79.2,6.3H42.2h-1.1c0,0-6.7,0-6.7,7.8v33.9c0,0,0,5.2,4.3,7.1v9.1l8.4-8.4h32.2c0,0,7.8,0,7.8-7.8V14.2
	C87.1,14.2,87.1,6.3,79.2,6.3z"/>
<g>
	<path class="st3" d="M75,28.6L75,28.6L50.8,16.9l0,0c-0.3-0.1-0.5-0.2-0.8-0.2c-1.1,0-1.9,0.9-1.9,2c0,0.2,0,0.5,0.1,0.7l0,0
		l4.4,11l-4.4,11l0,0c-0.1,0.2-0.1,0.4-0.1,0.7c0,1.1,0.9,2,1.9,2c0.3,0,0.6-0.1,0.8-0.2l0,0L75,32.2l0,0c0.7-0.3,1.1-1,1.1-1.8
		C76.1,29.6,75.6,28.9,75,28.6"/>
</g>
</svg>
