<?xml version="1.0" encoding="utf-8"?>
<!-- Generator: Adobe Illustrator 20.0.0, SVG Export Plug-In . SVG Version: 6.00 Build 0)  -->
<svg version="1.1" id="Layer_1" xmlns="http://www.w3.org/2000/svg" xmlns:xlink="http://www.w3.org/1999/xlink" x="0px" y="0px"
	 viewBox="0 0 93.5 82.2" style="enable-background:new 0 0 93.5 82.2;" xml:space="preserve">
<style type="text/css">
	.st0{fill:#4A4A49;}
	.st1{fill:#FFFFFF;}
	.st2{fill:#FCC04C;}
	.st3{fill:#C6C6C6;}
</style>
<g>
	<g>
		<path class="st0" d="M13.6,0C13.6,0,0,0,0,13.6v55c0,0,0,13.6,13.6,13.6h66.3c0,0,13.6,0,13.6-13.6v-55c0,0,0-13.6-13.6-13.6H13.6
			"/>
	</g>
	<g>
		<path class="st1" d="M11,25.2c0,0-2.6,2.8-3.4,6c-0.8,3.2-0.5,6.8-0.1,8.7c0.4,1.9,2.1,7.7,7.1,14c2.8,3.5,4.2,5.1,5,5.9
			c0.7,0.8,2.1,2.4,5.3,5.5c5.7,5.6,11.4,8,13.2,8.5c1.8,0.6,5.4,1.2,8.6,0.8c3.2-0.4,6.4-2.8,6.4-2.8s3.5-3.9,4.1-6.3
			c0.5-2.4-0.4-3-0.4-3s-11.2-7.6-12.8-8.6c-1.6-1.1-2.6,0.1-2.6,0.1l-3,2.7c0,0-0.3,0.4-1.1-0.2c-2.4-1.3-5.1-3.9-6.6-5.6l0,0
			c0,0-0.3-0.3-0.7-0.7c-0.4-0.5-0.6-0.7-0.6-0.7l0,0c-1.5-1.7-3.8-4.6-4.9-7.1c-0.4-0.8,0-1.1,0-1.1l3-2.7c0,0,1.3-0.9,0.4-2.6
			c-0.9-1.7-7.2-13.6-7.2-13.6s-0.5-1-2.9-0.7C15.3,22.1,11,25.2,11,25.2"/>
	</g>
	<g>
		<path class="st2" d="M57.8,18.4L75.1,13c0,0,2.3,5.1,2.3,5.8c0,0.8-10.8,10.6-10.8,10.6L57.8,18.4z"/>
	</g>
	<g>
		<path class="st2" d="M57.8,41.1L75.1,39c0,0,0.3,10,0.3,10.7c0,0.8-17.6,0.5-17.6,0.5V41.1z"/>
	</g>
</g>
<g>
	<rect x="51.9" y="8.1" class="st3" width="29.4" height="4.3"/>
</g>
<g>
	<rect x="51.9" y="47.6" class="st3" width="29.4" height="4.3"/>
</g>
<g>
	<polygon class="st3" points="78.8,48 74,48 74,41.1 54.3,20.5 54.3,10.8 59.1,10.8 59.1,18.6 78.8,39.2 	"/>
</g>
<g>
	<polygon class="st3" points="59.1,48 54.3,48 54.3,39.2 74,18.6 74,10.8 78.8,10.8 78.8,20.5 59.1,41.1 	"/>
</g>
</svg>
