<?xml version="1.0" encoding="utf-8"?>
<!-- Generator: Adobe Illustrator 20.0.0, SVG Export Plug-In . SVG Version: 6.00 Build 0)  -->
<svg version="1.1" id="Layer_1" xmlns="http://www.w3.org/2000/svg" xmlns:xlink="http://www.w3.org/1999/xlink" x="0px" y="0px"
	 viewBox="0 0 93.5 82.2" style="enable-background:new 0 0 93.5 82.2;" xml:space="preserve">
<style type="text/css">
	.st0{fill:#4A4A49;}
	.st1{fill:#C6C6C6;}
	.st2{fill:#FFFFFF;}
	.st3{fill:#FCC04C;}
	.st4{fill:#878787;}
</style>
<g>
	<path class="st0" d="M13.6,0C13.6,0,0,0,0,13.6v55c0,0,0,13.6,13.6,13.6h66.3c0,0,13.6,0,13.6-13.6v-55c0,0,0-13.6-13.6-13.6H13.6"
		/>
	<path class="st1" d="M22.1,61.6c4.8,0,8.6-3.9,8.6-8.6s-3.9-8.6-8.6-8.6s-8.6,3.9-8.6,8.6S17.4,61.6,22.1,61.6"/>
	<path class="st1" d="M37.8,73.3L37.8,73.3l0-2.7c0,0,0-8.3-7.3-10.3c-2,2.3-5,3.7-8.3,3.7c-3.3,0-6.3-1.5-8.3-3.7
		c-7.3,2-7.3,10.3-7.3,10.3v2.6l0,0c0,0,0,0,0,0c0,1.2,1,2.3,2.3,2.3c0,0,0,0,0,0h13.4h13.4h0C36.8,75.5,37.8,74.5,37.8,73.3
		C37.8,73.3,37.8,73.3,37.8,73.3"/>
</g>
<g>
	<path class="st2" d="M79.7,6.3H42.6h-1.1c0,0-6.7,0-6.7,7.8v33.9c0,0,0,5.2,4.3,7.1v9.1l8.4-8.4h32.2c0,0,7.8,0,7.8-7.8V14.2
		C87.5,14.2,87.5,6.3,79.7,6.3z"/>
</g>
<g>
	<path class="st3" d="M52.9,20.3l16.1-5c0,0,2.2,4.7,2.2,5.4s-10,9.8-10,9.8L52.9,20.3z"/>
	<path class="st3" d="M52.9,41.4L69,39.5c0,0,0.2,9.3,0.2,10c0,0.7-16.3,0.5-16.3,0.5V41.4z"/>
</g>
<rect x="47.5" y="10.8" class="st4" width="27.3" height="4"/>
<rect x="47.5" y="47.4" class="st4" width="27.3" height="4"/>
<g>
	<polygon class="st4" points="72.5,47.8 68,47.8 68,41.5 49.7,22.3 49.7,13.2 54.1,13.2 54.1,20.5 72.5,39.7 	"/>
</g>
<g>
	<polygon class="st4" points="54.1,47.8 49.7,47.8 49.7,39.7 68,20.5 68,13.2 72.5,13.2 72.5,22.3 54.1,41.5 	"/>
</g>
</svg>
