<?xml version="1.0" encoding="utf-8"?>
<!-- Generator: Adobe Illustrator 20.0.0, SVG Export Plug-In . SVG Version: 6.00 Build 0)  -->
<svg version="1.1" id="Layer_1" xmlns="http://www.w3.org/2000/svg" xmlns:xlink="http://www.w3.org/1999/xlink" x="0px" y="0px"
	 viewBox="0 0 93.5 82.2" style="enable-background:new 0 0 93.5 82.2;" xml:space="preserve">
<style type="text/css">
	.st0{fill:#4A4A49;}
	.st1{fill:#FFFFFF;}
	.st2{fill:#FCC04C;}
	.st3{fill:#C6C6C6;}
	.st4{fill:#878787;}
</style>
<g>
	<path class="st0" d="M13.6,0C13.6,0,0,0,0,13.6v55c0,0,0,13.6,13.6,13.6h66.3c0,0,13.6,0,13.6-13.6v-55c0,0,0-13.6-13.6-13.6H13.6"
		/>
</g>
<path class="st1" d="M80.5,6.4H49.2h-0.9c0,0-5.7,0-5.7,6.6v21.7c0,0,0,4.4,3.6,6v7.7l7.1-7.1h27.3c0,0,6.6,0,6.6-6.6V13
	C87.1,13,87.1,6.4,80.5,6.4z"/>
<g>
	<g>
		<path class="st2" d="M15.2,42.6l16.3-5.1c0,0,2.2,4.8,2.2,5.5s-10.2,10-10.2,10L15.2,42.6z"/>
	</g>
	<g>
		<path class="st2" d="M15.2,63.9l16.3-2c0,0,0.2,9.4,0.2,10.1c0,0.7-16.6,0.5-16.6,0.5V63.9z"/>
	</g>
</g>
<g>
	<rect x="9.7" y="32.9" class="st3" width="27.7" height="4"/>
</g>
<g>
	<rect x="9.7" y="70.1" class="st3" width="27.7" height="4"/>
</g>
<g>
	<polygon class="st3" points="35.1,70.5 30.5,70.5 30.5,64 11.9,44.6 11.9,35.4 16.5,35.4 16.5,42.8 35.1,62.2 	"/>
</g>
<g>
	<polygon class="st3" points="16.5,70.5 11.9,70.5 11.9,62.2 30.5,42.8 30.5,35.4 35.1,35.4 35.1,44.6 16.5,64 	"/>
</g>
<g>
	<g>
		<path class="st4" d="M74.5,25.5L73,28c1.3,1.2,2.6,1.8,4.3,1.8c2.9,0,4.7-1.8,4.7-4.3c0-2.2-1.2-3-3.3-3.6
			c-1.1-0.3-1.9-0.5-1.9-1.3c0-0.6,0.5-1,1.3-1c0.7,0,1.6,0.3,2.3,1l1-2.4c-1.1-0.7-2.2-1.1-3.6-1.1c-2.6,0-4.2,1.7-4.2,3.9
			c0,1.9,1.1,2.8,3.3,3.4c1.4,0.4,2,0.6,2,1.6c0,0.7-0.6,1.3-1.5,1.3C76.5,27.2,75.5,26.6,74.5,25.5 M72.2,29.4l-1.9-12.2h-3.3
			l-1.9,6.3c-0.1,0.4-0.3,1-0.4,1.7c-0.1-0.7-0.3-1.3-0.4-1.6l-1.8-6.3h-3.3l-1.9,12.2h3.1l0.7-5.3c0.1-0.7,0.2-1.6,0.3-2.7
			c0.2,1.1,0.4,1.8,0.6,2.3l1.6,5.7h2.2l1.6-5.7c0.1-0.5,0.4-1.2,0.6-2.3c0.1,1.1,0.2,2,0.3,2.7l0.7,5.3H72.2z M48.9,25.5L47.4,28
			c1.3,1.2,2.6,1.8,4.3,1.8c2.9,0,4.7-1.8,4.7-4.3c0-2.2-1.2-3-3.3-3.6c-1.1-0.3-1.9-0.5-1.9-1.3c0-0.6,0.5-1,1.3-1
			c0.7,0,1.6,0.3,2.3,1l1-2.4c-1.1-0.7-2.2-1.1-3.6-1.1c-2.5,0-4.2,1.7-4.2,3.9c0,1.9,1.1,2.8,3.3,3.4c1.4,0.4,2,0.6,2,1.6
			c0,0.7-0.6,1.3-1.5,1.3C50.9,27.2,49.9,26.6,48.9,25.5"/>
	</g>
</g>
</svg>
