<?xml version="1.0" encoding="utf-8"?>
<!-- Generator: Adobe Illustrator 20.0.0, SVG Export Plug-In . SVG Version: 6.00 Build 0)  -->
<svg version="1.1" id="Layer_1" xmlns="http://www.w3.org/2000/svg" xmlns:xlink="http://www.w3.org/1999/xlink" x="0px" y="0px"
	 viewBox="0 0 93.5 82.2" style="enable-background:new 0 0 93.5 82.2;" xml:space="preserve">
<style type="text/css">
	.st0{fill:#4A4A49;}
	.st1{fill:#FFFFFF;}
	.st2{fill:#B2B2B2;}
	.st3{fill:#FCC04C;}
	.st4{fill:#878787;}
</style>
<g>
	<g>
		<path class="st0" d="M13.6,0C13.6,0,0,0,0,13.6v55c0,0,0,13.6,13.6,13.6h66.3c0,0,13.6,0,13.6-13.6v-55c0,0,0-13.6-13.6-13.6H13.6
			"/>
	</g>
	<g>
		<path class="st1" d="M16.5,16c0,0-6.3,0-6.3,7.3v35.6c0,0,0,7.3,7.3,7.3h58.4c0,0,7.3,0,7.3-7.3V23.3c0,0,0-7.3-7.3-7.3H17.5"/>
	</g>
</g>
<g>
	<path class="st2" d="M46.7,61.6c-0.4,0-0.9-0.2-1.2-0.5L15.1,30.7c-0.7-0.7-0.7-1.8,0-2.5c0.7-0.7,1.8-0.7,2.5,0l29.1,29.1
		l29.1-29.1c0.7-0.7,1.8-0.7,2.5,0c0.7,0.7,0.7,1.8,0,2.5L47.9,61.1C47.6,61.4,47.1,61.6,46.7,61.6z"/>
</g>
<g>
	<path class="st2" d="M77,62c-0.4,0-0.9-0.2-1.2-0.5L61.1,46.8c-0.7-0.7-0.7-1.8,0-2.5c0.7-0.7,1.8-0.7,2.5,0L78.3,59
		c0.7,0.7,0.7,1.8,0,2.5C77.9,61.8,77.5,62,77,62z"/>
</g>
<g>
	<path class="st2" d="M16.3,62c-0.4,0-0.9-0.2-1.2-0.5c-0.7-0.7-0.7-1.8,0-2.5l14.7-14.7c0.7-0.7,1.8-0.7,2.5,0
		c0.7,0.7,0.7,1.8,0,2.5L17.6,61.5C17.2,61.8,16.8,62,16.3,62z"/>
</g>
<g>
	<g>
		<path class="st3" d="M41.1,25.5L52,22.1c0,0,1.5,3.2,1.5,3.7s-6.8,6.7-6.8,6.7L41.1,25.5z"/>
	</g>
	<g>
		<path class="st3" d="M41.1,39.8L52,38.5c0,0,0.2,6.3,0.2,6.8c0,0.5-11.1,0.3-11.1,0.3V39.8z"/>
	</g>
</g>
<g>
	<rect x="37.4" y="19" class="st4" width="18.5" height="2.7"/>
</g>
<g>
	<rect x="37.4" y="43.9" class="st4" width="18.5" height="2.7"/>
</g>
<g>
	<polygon class="st4" points="54.4,44.1 51.4,44.1 51.4,39.8 38.9,26.8 38.9,20.7 41.9,20.7 41.9,25.6 54.4,38.6 	"/>
</g>
<g>
	<polygon class="st4" points="41.9,44.1 38.9,44.1 38.9,38.6 51.4,25.6 51.4,20.7 54.4,20.7 54.4,26.8 41.9,39.8 	"/>
</g>
</svg>
