<svg id="Layer_1" data-name="Layer 1" xmlns="http://www.w3.org/2000/svg" viewBox="0 0 100 100"><defs><style>.cls-1{fill:#fff;}</style></defs><polygon class="cls-1" points="16.91 40.28 16.91 59.77 30.31 59.77 47.01 72.82 47.01 27.23 30.31 40.28 16.91 40.28"/><path class="cls-1" d="M67.18,18.82,63.25,25c7.15,3.07,12.57,13.28,12.57,25S70.49,71.79,63.44,75l3.84,6.21C76.51,76.46,83.09,64.3,83.09,50S76.47,23.5,67.18,18.82Z"/><path class="cls-1" d="M59.54,30.85l-3.84,6C58.86,39.72,61,44.6,61,50a17.93,17.93,0,0,1-5,12.88L59.76,69c5.13-4,8.52-11,8.52-19S64.79,34.87,59.54,30.85Z"/></svg>