<svg id="Layer_1" data-name="Layer 1" xmlns="http://www.w3.org/2000/svg" viewBox="0 0 100 100"><defs><style>.cls-1{fill:#fff;}</style></defs><circle class="cls-1" cx="33.62" cy="33.58" r="6.63"/><path class="cls-1" d="M43.65,41.33H23.59A4.6,4.6,0,0,0,19,45.92V60.19a3.19,3.19,0,0,0,3.18,3.23,3.23,3.23,0,0,0,3.23-3.23V47.55h1.17V71a2,2,0,0,0,2,2H38.66a2,2,0,0,0,2-2V47.55h1.17V60.19a3.23,3.23,0,0,0,3.23,3.23,3.2,3.2,0,0,0,3.18-3.23V45.92A4.61,4.61,0,0,0,43.65,41.33Z"/><circle class="cls-1" cx="66.38" cy="33.58" r="6.63"/><path class="cls-1" d="M76.41,41.33H56.35a4.61,4.61,0,0,0-4.59,4.59V60.19a3.2,3.2,0,0,0,3.18,3.23,3.23,3.23,0,0,0,3.23-3.23V47.55h1.17V71a2,2,0,0,0,2,2H71.41a2,2,0,0,0,2-2V47.55h1.17V60.19a3.23,3.23,0,0,0,3.23,3.23A3.19,3.19,0,0,0,81,60.19V45.92A4.6,4.6,0,0,0,76.41,41.33Z"/></svg>