<svg id="Layer_1" data-name="Layer 1" xmlns="http://www.w3.org/2000/svg" viewBox="0 0 100 100"><defs><style>.cls-1{fill:#fff;}</style></defs><path id="Path_2" data-name="Path 2" class="cls-1" d="M77.88,44.14h-5A24.29,24.29,0,0,0,70.31,38l3.54-3.55c.75-.74-.5-3.21-2.79-5.5h0c-2.29-2.29-4.74-3.54-5.5-2.79L62,29.67a23.52,23.52,0,0,0-6.19-2.58v-5c0-1.06-2.62-1.91-5.85-1.91h0c-3.24,0-5.86.85-5.86,1.91V27a23.42,23.42,0,0,0-6.27,2.55L34.4,26.13c-.75-.75-3.21.5-5.51,2.79h0c-2.29,2.29-3.53,4.75-2.79,5.5l3.4,3.4a23.85,23.85,0,0,0-2.67,6.33H22.09c-1.05,0-1.91,2.62-1.91,5.85h0c0,3.24.86,5.86,1.91,5.86h4.7a23.69,23.69,0,0,0,2.64,6.42l-3.31,3.31c-.74.74.5,3.21,2.79,5.5h0c2.29,2.29,4.75,3.54,5.5,2.79l3.31-3.31a23.76,23.76,0,0,0,6.43,2.64v4.7c0,1,2.62,1.91,5.85,1.91h0c3.24,0,5.86-.85,5.86-1.91V73.13a23.21,23.21,0,0,0,6.33-2.67l3.39,3.4c.75.75,3.21-.5,5.51-2.79h0c2.29-2.29,3.53-4.75,2.79-5.5l-3.46-3.46A24.1,24.1,0,0,0,73,55.84h4.94c1.06,0,1.91-2.62,1.91-5.86h0C79.8,46.76,78.94,44.14,77.88,44.14Zm-28,16.51A10.53,10.53,0,1,1,60.4,50.12,10.54,10.54,0,0,1,49.87,60.65Z"/></svg>