<svg id="Layer_1" data-name="Layer 1" xmlns="http://www.w3.org/2000/svg" viewBox="0 0 100 100"><defs><style>.cls-1{fill:#fff;}</style></defs><g id="Group_229" data-name="Group 229"><path id="Path_276" data-name="Path 276" class="cls-1" d="M85.72,65.58l-7.31,4.35,4.8,9.16H16.79l4.8-9.16-7.31-4.35V44.81l3.88-3a7.05,7.05,0,0,1-2.06-5.1,7.15,7.15,0,0,1,2.15-5.2,7.22,7.22,0,0,1,10.32,0,7.35,7.35,0,0,1,.09,10.3l3.88,3v4.35L36.3,42h4.57V36.39l3.88-3a7.34,7.34,0,0,1,.09-10.29,7.28,7.28,0,0,1,10.29,0l0,0a7.33,7.33,0,0,1,.08,10.29l3.88,3V42H63.7l3.76,7.22V44.81l3.88-3a7,7,0,0,1-2.07-5.1,7.1,7.1,0,0,1,2.14-5.2,7.24,7.24,0,0,1,10.24-.09l.09.09a7.35,7.35,0,0,1,.09,10.3l3.87,3ZM30,53.91V46l-3.64-3v-2.6a4.36,4.36,0,0,0,1.82-3.76,4.79,4.79,0,0,0-4.77-4.8h0a4.83,4.83,0,0,0-4.83,4.8,4.39,4.39,0,0,0,1.85,3.76v2.6l-3.64,3V64l6.09,3.49ZM78,76,61.7,45.23H38.07L21.77,76ZM56.62,42V37.59l-3.63-3V32a4.43,4.43,0,0,0,1.81-3.79,4.63,4.63,0,0,0-1.41-3.4,4.82,4.82,0,0,0-6.8,0,4.66,4.66,0,0,0-1.4,3.4A4.39,4.39,0,0,0,47,32v2.59l-3.63,3V42ZM83.21,64V46l-3.64-3v-2.6a4.39,4.39,0,0,0,1.85-3.76,4.82,4.82,0,0,0-9.64,0h0a4.36,4.36,0,0,0,1.82,3.76v2.6L70,46v7.88l7.16,13.58Z"/></g></svg>