<svg id="Layer_1" data-name="Layer 1" xmlns="http://www.w3.org/2000/svg" viewBox="0 0 100 100"><defs><style>.cls-1{fill:#fff;}</style></defs><path class="cls-1" d="M28.87,18.36v1.58a9.18,9.18,0,0,0-5.18,2.48A5.89,5.89,0,0,0,22,26.55a25.88,25.88,0,0,0,.84,5.85,26.71,26.71,0,0,1,.84,6.1,9.7,9.7,0,0,1-1.42,4.87,12.54,12.54,0,0,1-4.1,4.24,21.36,21.36,0,0,1-5.94,2.32,25.3,25.3,0,0,1,6.33,2.71,12,12,0,0,1,3.9,4.22,9.71,9.71,0,0,1,1.3,4.6,24.7,24.7,0,0,1-.86,5.63,26.38,26.38,0,0,0-.86,6.11,6.27,6.27,0,0,0,1.6,4.31A9.09,9.09,0,0,0,28.87,80v1.66H27.64A14.1,14.1,0,0,1,20.84,80,12.06,12.06,0,0,1,16,75.68a9.81,9.81,0,0,1-1.64-5.15,28.12,28.12,0,0,1,1.09-6.64,22.61,22.61,0,0,0,.81-5.59,6.83,6.83,0,0,0-1.76-4.73,8.56,8.56,0,0,0-5.13-2.52V48.91a8.26,8.26,0,0,0,5.13-2.6,7.34,7.34,0,0,0,1.76-5A22,22,0,0,0,15.48,36a27.45,27.45,0,0,1-1.09-6.36A9.13,9.13,0,0,1,15.76,25a12,12,0,0,1,3.44-3.83A14.25,14.25,0,0,1,23.74,19,22.69,22.69,0,0,1,28.87,18.36Z"/><path class="cls-1" d="M35.2,36.64l12.27-2.11a35.06,35.06,0,0,1,4.71,11.53,86.38,86.38,0,0,1,5.2-7.13,15.85,15.85,0,0,1,3.89-3.57,6.74,6.74,0,0,1,3.25-.83,4,4,0,0,1,3,1.06,3.88,3.88,0,0,1,1,2.84,3.8,3.8,0,0,1-1,2.76,3.43,3.43,0,0,1-2.58,1.08,9.86,9.86,0,0,1-2.59-.41,8.94,8.94,0,0,0-2-.4,4.49,4.49,0,0,0-2.81,1Q55.66,44,53,48.66c2,7,3.58,11.32,4.78,12.87a2.84,2.84,0,0,0,2.14,1.37,2.8,2.8,0,0,0,1.59-.45,18.84,18.84,0,0,0,3.13-3.7l1.26.74a23.43,23.43,0,0,1-6,7,7.66,7.66,0,0,1-4.43,1.59,6.56,6.56,0,0,1-3.74-1A8.27,8.27,0,0,1,49,63.83a51,51,0,0,1-2.75-7.26q-4.11,5.25-6.45,7.65a15.44,15.44,0,0,1-3.88,3.15,7.63,7.63,0,0,1-3.31.74,4,4,0,0,1-2.9-1.06,3.69,3.69,0,0,1-1.07-2.74,4,4,0,0,1,4.11-4.11,5.05,5.05,0,0,1,2.15.56,7,7,0,0,0,2.53.84,3.92,3.92,0,0,0,1.83-.42A10.52,10.52,0,0,0,42,58.89c.66-.72,1.86-2.27,3.62-4.64q-3.37-12.51-5.27-15a3.64,3.64,0,0,0-3-1.58A11.74,11.74,0,0,0,35,38Z"/><path class="cls-1" d="M71.13,81.68V80.06a9.28,9.28,0,0,0,5.17-2.48A5.9,5.9,0,0,0,78,73.45a25.81,25.81,0,0,0-.84-5.82,26.57,26.57,0,0,1-.84-6.1,9.92,9.92,0,0,1,1.4-4.9,12.24,12.24,0,0,1,4.12-4.24,22.69,22.69,0,0,1,5.94-2.32,25.3,25.3,0,0,1-6.33-2.71,11.93,11.93,0,0,1-3.94-4.22,9.83,9.83,0,0,1-1.3-4.6,25.27,25.27,0,0,1,.86-5.63,25.76,25.76,0,0,0,.86-6.08,6.26,6.26,0,0,0-1.58-4.32A9.15,9.15,0,0,0,71.13,20V18.36l1.23,0A14.11,14.11,0,0,1,79.14,20,12.05,12.05,0,0,1,84,24.32a9.88,9.88,0,0,1,1.64,5.18,28.07,28.07,0,0,1-1.09,6.61,22.61,22.61,0,0,0-.81,5.59,6.93,6.93,0,0,0,1.74,4.75A8.36,8.36,0,0,0,90.64,49v2.14a8.24,8.24,0,0,0-5.15,2.6,7.38,7.38,0,0,0-1.74,5A22,22,0,0,0,84.52,64a28.15,28.15,0,0,1,1.06,6.36,9.17,9.17,0,0,1-1.36,4.66,11.87,11.87,0,0,1-3.42,3.81A14.25,14.25,0,0,1,76.26,81,24.17,24.17,0,0,1,71.13,81.68Z"/></svg>