<svg id="Layer_1" data-name="Layer 1" xmlns="http://www.w3.org/2000/svg" viewBox="0 0 100 100"><defs><style>.cls-1{fill:#fff;}</style></defs><path class="cls-1" d="M69.49,36.16H42.58V82.37h39.1V48.15Zm-.59,5,7.21,7.1H68.9Zm8.78,37.18H46.58V40.16H65.9V51.29H77.68Z"/><path class="cls-1" d="M23.32,70.91V30.19a1,1,0,0,1,1-1h6.92a5.58,5.58,0,0,0-1.93,4h24a5.58,5.58,0,0,0-1.93-4h6.92a1,1,0,0,1,1,1v3h5v-3a6,6,0,0,0-6-6H48a6.74,6.74,0,0,0-13.48,0H24.32a6,6,0,0,0-6,6V70.91a6,6,0,0,0,6,6H39.58v-5H24.32A1,1,0,0,1,23.32,70.91Zm18-49.28a2.75,2.75,0,1,1-2.75,2.75A2.75,2.75,0,0,1,41.29,21.63Z"/></svg>